<!DOCTYPE svg PUBLIC "-//W3C//DTD SVG 1.1//EN" "http://www.w3.org/Graphics/SVG/1.1/DTD/svg11.dtd">
<!-- Uploaded to: SVG Repo, www.svgrepo.com, Transformed by: SVG Repo Mixer Tools -->
<svg height="800px" width="800px" version="1.1" id="Layer_1" xmlns="http://www.w3.org/2000/svg" xmlns:xlink="http://www.w3.org/1999/xlink" viewBox="0 0 512 512" xml:space="preserve" fill="" stroke="">
<g id="SVGRepo_bgCarrier" stroke-width="0"/>
<g id="SVGRepo_tracerCarrier" stroke-linecap="round" stroke-linejoin="round"/>
<g id="SVGRepo_iconCarrier"> <g> <path style="fill:#FF6600;" d="M75.696,227.328l112.736-58.064v16.768L93.44,233.648v0.48l94.992,47.616v16.768L75.696,240.448 C75.696,240.448,75.696,227.328,75.696,227.328z"/> <path style="fill:#FF6600;" d="M204.224,308.24L272,132.096h16.528L220.496,308.24H204.224z"/> <path style="fill:#FF6600;" d="M416.56,240.688l-112.736,57.824V281.76l95.728-47.616v-0.48l-95.728-47.616V169.28l112.736,57.824 V240.688z"/> </g> <g> <path style="fill:#22ACDD;" d="M242.848,451.744c-124.56,0-225.872-101.312-225.872-225.872S118.288,0,242.848,0 S468.72,101.312,468.72,225.872S367.408,451.744,242.848,451.744z M242.848,24.848c-110.816,0-201.024,90.208-201.024,201.024 s90.208,201.024,201.024,201.024s201.024-90.208,201.024-201.024S353.664,24.848,242.848,24.848z"/> <polygon style="fill:#22ACDD;" points="477.472,512 372.96,407.504 393.92,393.344 495.024,494.432 "/> </g> </g>
</svg>