<?xml version="1.0" encoding="iso-8859-1"?>
<!-- Uploaded to: SVG Repo, www.svgrepo.com, Generator: SVG Repo Mixer Tools -->
<svg version="1.1" id="Layer_1" xmlns="http://www.w3.org/2000/svg" xmlns:xlink="http://www.w3.org/1999/xlink" 
	 viewBox="0 0 512 512" xml:space="preserve">
<path d="M469.12,396.8V102.4c0-7.04-5.76-12.8-12.8-12.8H55.36c-7.04,0-12.8,5.76-12.8,12.8v294.4
	C42.56,396.8,470.24,396.8,469.12,396.8z"/>
<rect y="396.8" style="fill:#D8D8D8;" width="512" height="8.56"/>
<polygon style="fill:#999999;" points="486.4,422.4 25.6,422.4 0,405.36 512,405.36 "/>
<g>
	<path style="fill:#FF6600;" d="M114.88,231.2l8.96,34.4c1.92,7.52,3.76,14.56,5.04,21.52h0.4c1.52-6.88,3.76-14.16,6-21.36
		l11.04-34.48h10.32l10.48,33.84c2.48,8.08,4.48,15.2,6,22.08h0.4c1.12-6.88,2.96-14,5.2-21.92l9.6-33.92h12.16l-21.76,67.6h-11.2
		l-10.32-32.24c-2.4-7.52-4.32-14.24-6-22.24h-0.32c-1.68,8.08-3.76,15.12-6.16,22.4l-10.88,32.16h-11.2l-20.4-67.6h12.64
		L114.88,231.2L114.88,231.2z"/>
	<path style="fill:#FF6600;" d="M219.36,231.2l8.96,34.4c1.92,7.52,3.76,14.56,5.04,21.52h0.4c1.52-6.88,3.76-14.16,6-21.36
		l11.04-34.48h10.32l10.48,33.84c2.48,8.08,4.48,15.2,6,22.08h0.4c1.12-6.88,2.96-14,5.2-21.92l9.6-33.92h12.16l-21.76,67.6H272
		l-10.32-32.24c-2.4-7.52-4.32-14.24-6-22.24h-0.32c-1.68,8.08-3.76,15.12-6.16,22.4l-10.88,32.16h-11.2l-20.4-67.6h12.64
		L219.36,231.2L219.36,231.2z"/>
	<path style="fill:#FF6600;" d="M323.84,231.2l8.96,34.4c1.92,7.52,3.76,14.56,5.04,21.52h0.4c1.52-6.88,3.76-14.16,6-21.36
		l11.04-34.48h10.32l10.48,33.84c2.48,8.08,4.48,15.2,6,22.08h0.4c1.12-6.88,2.96-14,5.2-21.92l9.6-33.92h12.16l-21.76,67.6h-11.2
		l-10.32-32.24c-2.4-7.52-4.32-14.24-6-22.24h-0.32c-1.68,8.08-3.76,15.12-6.16,22.4l-10.88,32.16h-11.2l-20.4-67.6h12.64V231.2z"/>
</g>
<rect x="102.08" y="183.84" style="fill:#FFFFFF;" width="307.36" height="8.56"/>
<g>
	<rect x="375.36" y="337.44" style="fill:#FF6600;" width="34.16" height="8.56"/>
	<rect x="320.72" y="337.44" style="fill:#FF6600;" width="34.16" height="8.56"/>
	<rect x="266.08" y="337.44" style="fill:#FF6600;" width="34.16" height="8.56"/>
	<rect x="211.52" y="337.44" style="fill:#FF6600;" width="34.16" height="8.56"/>
	<rect x="156.88" y="337.44" style="fill:#FF6600;" width="34.16" height="8.56"/>
	<rect x="102.24" y="337.44" style="fill:#FF6600;" width="34.16" height="8.56"/>
</g>
<g>
	<circle style="fill:#FFFFFF;" cx="162" cy="124.08" r="8.56"/>
	<circle style="fill:#FFFFFF;" cx="127.92" cy="124.08" r="8.56"/>
	<circle style="fill:#FFFFFF;" cx="93.76" cy="124.08" r="8.56"/>
</g>
<rect x="187.6" y="119.84" style="fill:#999999;" width="238.96" height="8.56"/>
<path style="opacity:0.2;fill:#FFFFFF;enable-background:new    ;" d="M340.48,89.6H54.32c-7.04,0-12.8,5.76-12.8,12.8v138.8
	L340.48,89.6z"/>
</svg>